HIERARCHY
ROOT Pelvis
{
	OFFSET 0.000000 0.000000 0.000000
	CHANNELS 6 Xposition Yposition Zposition Zrotation Yrotation Xrotation 
	JOINT Left_hip
	{
		OFFSET 0.070241 -0.085575 -0.010474
		CHANNELS 3 Zrotation Yrotation Xrotation
		JOINT Left_knee
		{
			OFFSET 0.032125 -0.356873 -0.000555
			CHANNELS 3 Zrotation Yrotation Xrotation
			JOINT Left_ankle
			{
				OFFSET -0.010961 -0.370212 -0.042278
				CHANNELS 3 Zrotation Yrotation Xrotation
				JOINT Left_foot
				{
					OFFSET 0.023322 -0.052281 0.110104
					CHANNELS 3 Zrotation Yrotation Xrotation
					End Site
					{
						OFFSET 0.000000 0.000000 0.000000
					}
				}
			}
		}
	}
	JOINT Right_hip
	{
		OFFSET -0.068518 -0.084320 -0.007402
		CHANNELS 3 Zrotation Yrotation Xrotation
		JOINT Right_knee
		{
			OFFSET -0.037345 -0.364815 -0.003619
			CHANNELS 3 Zrotation Yrotation Xrotation
			JOINT Right_ankle
			{
				OFFSET 0.013394 -0.370006 -0.039954
				CHANNELS 3 Zrotation Yrotation Xrotation
				JOINT Right_foot
				{
					OFFSET -0.019600 -0.045455 0.113223
					CHANNELS 3 Zrotation Yrotation Xrotation
					End Site
					{
						OFFSET 0.000000 0.000000 0.000000
					}
				}
			}
		}
	}
	JOINT Spine1
	{
		OFFSET -0.002404 0.098129 -0.018169
		CHANNELS 3 Zrotation Yrotation Xrotation
		JOINT Spine2
		{
			OFFSET 0.003989 0.127209 -0.001742
			CHANNELS 3 Zrotation Yrotation Xrotation
			JOINT Spine3
			{
				OFFSET 0.001758 0.046641 0.023475
				CHANNELS 3 Zrotation Yrotation Xrotation
				JOINT Neck
				{
					OFFSET -0.003759 0.194901 -0.039982
					CHANNELS 3 Zrotation Yrotation Xrotation
					JOINT Head
					{
						OFFSET 0.003999 0.063756 0.047665
						CHANNELS 3 Zrotation Yrotation Xrotation
						End Site
						{
							OFFSET 0.000000 0.000000 0.000000
						}
					}
				}
				JOINT Left_collar
				{
					OFFSET 0.071816 0.109048 -0.028973
					CHANNELS 3 Zrotation Yrotation Xrotation
					JOINT Left_shoulder
					{
						OFFSET 0.084027 0.032269 -0.006525
						CHANNELS 3 Zrotation Yrotation Xrotation
						JOINT Left_elbow
						{
							OFFSET 0.243854 -0.013992 -0.025905
							CHANNELS 3 Zrotation Yrotation Xrotation
							JOINT Left_wrist
							{
								OFFSET 0.232156 0.008196 -0.000339
								CHANNELS 3 Zrotation Yrotation Xrotation
								JOINT Left_palm
								{
									OFFSET 0.075377 -0.009461 -0.012494
									CHANNELS 3 Zrotation Yrotation Xrotation
									End Site
									{
										OFFSET 0.000000 0.000000 0.000000
									}
								}
							}
						}
					}
				}
				JOINT Right_collar
				{
					OFFSET -0.073768 0.107001 -0.033755
					CHANNELS 3 Zrotation Yrotation Xrotation
					JOINT Right_shoulder
					{
						OFFSET -0.086837 0.032868 -0.009431
						CHANNELS 3 Zrotation Yrotation Xrotation
						JOINT Right_elbow
						{
							OFFSET -0.236446 -0.012544 -0.018747
							CHANNELS 3 Zrotation Yrotation Xrotation
							JOINT Right_wrist
							{
								OFFSET -0.236110 0.006124 -0.004327
								CHANNELS 3 Zrotation Yrotation Xrotation
								JOINT Right_palm
								{
									OFFSET -0.074800 -0.006875 -0.009610
									CHANNELS 3 Zrotation Yrotation Xrotation
									End Site
									{
										OFFSET 0.000000 0.000000 0.000000
									}
								}
							}
						}
					}
				}
			}
		}
	}
}
MOTION
Frames: 15
Frame Time: 0.100000
0.000000 0.000000 0.000000 177.156025 18.415046 -7.530311 -0.636025 6.660702 1.911854 0.805038 -3.741829 -5.127109 -3.036591 25.640204 -4.746091 10.116118 -3.345786 -0.159204 2.489755 -4.248181 -0.132619 -1.549986 5.544045 -4.768088 -2.026946 -20.114487 -1.488794 8.556301 4.136185 5.185121 0.084864 2.982144 -2.359609 0.920647 -1.438220 -3.205874 0.685702 2.653425 -2.778006 2.239459 20.788204 4.150776 3.277343 16.854362 -2.372862 -4.310815 4.182873 -12.488218 6.427724 -16.803199 -14.191986 3.044576 9.890073 -4.160834 -9.823876 -1.542499 36.066171 -2.396772 -7.682006 -5.328804 6.731024 -3.332819 -5.600703 -1.760934 9.323976 -17.077267 -8.086530 -8.385841 -8.253564 8.860980 -1.784281 29.309555 9.330464 9.740374 -5.285639 
0.000401 -0.000103 0.001405 176.988609 18.524131 -7.719510 -0.433947 6.671626 2.179792 0.849669 -3.827378 -5.247757 -3.048876 25.573217 -4.826072 10.121362 -3.257092 -0.089174 2.635739 -4.262410 0.159316 -1.505698 5.441306 -4.883560 -2.192123 -20.085282 -1.457007 8.838119 4.038408 5.239695 -0.233383 3.034251 -2.596184 0.942824 -1.440450 -2.923263 0.664372 2.613641 -2.909086 2.391577 20.905670 4.319952 3.308504 16.555484 -2.190691 -4.232479 4.010397 -12.499014 6.733316 -17.259390 -14.201851 3.079937 9.278242 -4.082193 -9.331839 -1.967929 36.002460 -2.441126 -7.578623 -5.361724 6.914798 -3.157305 -5.636765 -1.510025 9.479770 -16.800198 -8.146283 -8.001015 -8.528601 8.568090 -1.421035 28.506297 9.378570 9.639058 -4.998675 
0.000418 -0.000167 0.002394 176.946760 18.438835 -7.817681 -0.358924 6.681468 2.308839 0.869561 -3.774885 -5.205087 -3.088968 25.591184 -4.921570 10.211363 -3.276532 -0.010181 2.685370 -4.250391 0.305881 -1.476168 5.416249 -4.896621 -2.258121 -20.020590 -1.483004 8.990398 4.017820 5.298973 -0.365426 3.075945 -2.833886 0.906174 -1.417000 -2.734999 0.571063 2.633485 -3.023366 2.603921 20.522903 4.628580 3.455898 16.240672 -1.686166 -4.436631 4.078975 -12.482918 6.796557 -17.414360 -14.090538 3.177259 8.875769 -4.286021 -9.122095 -2.239494 35.740358 -2.488951 -7.548728 -5.322331 7.059750 -3.096678 -5.652730 -1.645810 9.666965 -16.745115 -8.174819 -7.471615 -8.771190 8.327967 -1.061024 28.142439 9.357631 9.559918 -4.804942 
0.000228 -0.000133 0.003653 176.989758 18.508306 -7.937947 -0.368982 6.653723 2.517281 0.881029 -3.718578 -5.217572 -3.160664 25.629745 -5.033201 10.257807 -3.567247 0.230702 2.629827 -4.309462 0.543435 -1.448787 5.562507 -4.962656 -2.489633 -20.289330 -1.551767 9.317639 4.513569 5.769865 -0.498523 3.065200 -3.199896 0.892715 -1.443144 -2.446833 0.199520 2.529766 -3.186682 2.477551 15.790218 4.882687 3.619344 12.416465 0.317783 -5.172354 4.698707 -12.173501 7.008764 -17.618537 -14.194601 3.271552 8.079898 -5.888065 -7.725943 -2.824324 35.128829 -2.275988 -7.545932 -4.807846 7.931908 -2.964395 -5.837296 -2.067182 9.820374 -16.468414 -8.114434 -7.288326 -9.053181 6.662074 -0.442338 28.226254 8.762918 9.430435 -4.268318 
0.000561 -0.000076 0.003248 177.138228 18.592655 -8.293297 -0.463294 6.624189 2.774507 0.862788 -3.483929 -5.003255 -3.763448 25.600750 -5.240793 10.878952 -4.428268 0.520008 2.385549 -4.324541 0.802917 -1.371291 5.572426 -4.705848 -2.676287 -20.560721 -1.627412 9.152803 5.683709 6.076754 -0.523508 2.744004 -2.988688 0.737311 -1.412193 -2.316208 -0.601698 2.167790 -3.016300 1.236938 4.787219 4.316756 3.015198 3.319535 2.121261 -6.967852 6.977963 -11.620306 4.823290 -18.127018 -13.694716 5.815812 5.368307 -10.293002 2.106486 -7.662513 32.056779 -0.924671 -6.549481 -1.746688 9.865882 -3.214380 -6.721015 -0.916407 10.471046 -15.595248 -7.963047 -6.556092 -11.077526 -1.800199 4.098675 26.167143 6.644651 8.317460 -1.295801 
0.000592 0.001584 0.000456 177.589358 18.255612 -7.982255 -0.937987 6.456386 2.406518 0.833852 -2.574541 -4.995401 -3.945158 24.915578 -5.446491 10.777752 -4.431258 1.684598 1.959587 -4.071454 0.217673 -1.331729 4.930159 -4.345119 -3.141512 -19.767778 -1.965034 9.894249 5.430648 6.743114 -0.302812 2.274637 -2.876575 0.539510 -1.216112 -2.214428 -1.609987 1.917834 -3.061240 0.558160 -5.051618 4.378254 2.043841 -4.743350 3.453265 -10.771985 9.530139 -11.517143 -1.597624 -18.281748 -9.278522 8.603780 4.919142 -11.856403 17.111649 -14.229542 27.503440 1.432018 -4.995352 2.398474 13.142281 -4.301348 -7.947640 2.303244 10.551127 -13.229476 -8.479037 -3.530465 -13.891631 -15.455630 11.036622 22.006769 4.721950 6.549572 2.153850 
0.000129 0.003768 -0.003921 177.981037 17.736881 -8.260710 -1.310216 6.381461 2.585415 0.848455 -1.351564 -4.957160 -3.514255 23.753620 -5.478348 10.006821 -3.253492 2.167221 1.562306 -3.756136 0.239705 -1.293088 4.174338 -4.203516 -3.094258 -18.531112 -2.451279 9.350080 4.662505 7.953267 0.311306 2.109936 -2.736832 0.357314 -1.181081 -0.750426 -1.933070 1.789116 -3.282032 -0.098525 -9.487244 4.624387 1.067960 -7.805783 2.635251 -15.340784 10.177245 -10.939568 -11.656907 -16.154519 -5.430848 9.465860 6.454545 -17.033944 16.308179 -13.308184 23.903093 0.343001 -5.026695 1.732107 15.692817 -4.271825 -7.573698 6.539860 9.701864 -12.156839 -10.630265 -2.697707 -18.411149 -16.780706 11.419880 19.861086 5.620902 6.111731 1.621237 
0.000317 0.005740 -0.009694 178.164960 17.934720 -8.330299 -1.624825 6.155454 2.276925 0.783288 -0.319564 -4.807691 -2.510092 22.037998 -4.891295 7.793392 -1.563002 1.891934 1.234464 -3.604143 -0.178630 -1.280794 3.176433 -3.727815 -2.853833 -17.553528 -3.032889 8.420771 3.799559 9.254081 0.736950 1.852560 -2.520341 0.035726 -1.339893 0.526346 -2.074841 1.509196 -3.366196 -0.169726 -11.730408 3.468933 0.781904 -8.618423 1.527626 -19.170876 9.067072 -8.837078 -24.803435 -12.272511 0.685488 9.688507 7.219677 -16.041019 14.954060 -12.406483 21.044643 -1.091522 -5.205246 0.228444 17.361674 -3.949998 -6.088370 13.431800 7.454734 -10.199304 -12.554462 -2.816342 -21.306959 -17.358874 11.156787 16.604484 7.548566 5.897636 0.454278 
0.002507 0.007634 -0.015307 178.138464 18.530390 -8.581291 -1.465697 6.543609 2.468213 0.523325 0.397886 -5.370731 -1.561225 19.771541 -3.678347 5.056033 0.314678 0.552634 1.197759 -3.505256 -0.295387 -1.304328 2.284100 -3.465694 -3.204962 -16.897302 -3.396356 8.389419 3.221853 10.681707 0.452962 1.658099 -2.912714 -0.419888 -1.757389 4.427143 -2.416967 1.214993 -4.763442 1.309794 -12.858515 0.537175 1.415000 -9.579950 1.381914 -24.658942 5.124542 -4.520268 -35.625683 -7.350433 7.296256 9.404232 2.668066 -11.203985 13.640914 -12.206170 19.298812 -4.121218 -6.334118 -3.680456 20.698182 -1.433871 -1.834947 23.099289 3.519981 -6.674429 -14.202950 -1.680865 -23.556536 -18.716694 10.490724 10.396228 10.668790 6.420549 -0.947832 
0.006300 0.007637 -0.019533 177.620005 18.251068 -9.177005 -0.498503 6.537467 2.380515 0.242158 1.686795 -4.808836 -0.676889 18.251046 -3.037094 3.156830 2.146229 -1.718276 2.027635 -3.103421 -0.191947 -1.471949 1.546475 -3.453906 -1.087201 -16.439615 -3.783744 4.263776 4.247080 11.813493 -0.158116 2.193440 -2.602243 -0.305808 -1.780336 5.175229 -2.021922 1.415829 -4.568962 0.720089 -13.420797 0.087124 2.186120 -11.184305 1.748429 -26.531247 2.568076 -2.506132 -47.806489 -6.599333 11.489875 8.593117 -0.091775 -6.188997 4.111046 -8.672371 21.613655 -7.799036 -8.496073 -8.549121 23.361256 0.826959 0.683479 34.451663 1.769551 -3.206669 -15.694119 -2.088467 -21.409213 -11.624934 7.667660 10.741706 13.874225 8.268048 -3.777821 
0.011179 0.007544 -0.022136 177.300602 17.609660 -9.435083 0.022730 6.143364 2.457851 0.391741 2.993065 -4.943515 1.176855 16.998617 -2.089638 0.047092 4.214858 -3.121424 2.584139 -2.737419 -0.282287 -1.297778 0.977740 -3.514156 -0.046704 -15.786124 -3.972050 2.357243 4.759522 12.998781 -1.151467 2.933545 -3.002048 0.123356 -1.757064 6.432565 -1.551137 1.547931 -5.017662 0.020083 -12.489093 0.532712 2.380888 -12.685394 2.362571 -26.398895 -0.586172 -0.610643 -54.886946 -6.237601 14.566480 7.443376 -2.499425 -5.701378 -4.125886 -4.864322 17.388404 -10.779892 -9.788388 -12.399782 25.274166 3.728634 2.807315 45.076073 0.016533 0.806200 -16.948842 -1.840206 -21.849460 -6.098636 4.539174 4.852339 16.834169 9.279218 -5.790794 
0.013881 0.006660 -0.024294 176.763172 18.414728 -11.332233 0.912097 7.016950 4.235983 0.438246 3.669135 -5.195214 0.501279 14.099411 -0.692623 0.692709 3.541500 -3.072498 2.664577 -3.228161 1.648469 -0.982227 -2.726546 -3.688385 0.084232 -10.706594 -2.811307 2.342705 -0.942163 10.212172 -2.132331 2.380726 1.335372 1.383567 -2.126129 3.083181 -0.960048 0.552251 -4.940905 -1.120344 -11.598301 3.621637 3.412015 -12.689130 0.353635 -24.899802 1.437196 -0.679608 -59.604111 -5.293874 20.113265 7.711139 -8.735495 -1.158208 -7.386247 -7.235973 8.063002 -13.888870 -7.903565 -13.318274 25.312000 3.831534 1.714382 50.779983 -2.120711 9.295136 -15.158666 -2.052411 -19.203722 2.324411 6.624971 -7.364223 15.006151 7.598139 -4.826360 
0.012933 0.006392 -0.028106 176.501170 18.962886 -11.772303 1.103544 7.161053 4.462766 0.253783 3.652216 -5.229083 -0.323757 13.937611 -0.804537 1.812435 2.862790 -3.737017 2.642072 -3.450121 1.899094 -1.024513 -2.978836 -3.577675 0.837367 -10.329023 -2.689997 1.336683 -1.866116 9.842791 -1.920991 1.582358 2.268071 1.667553 -2.614112 1.965784 -0.417789 -0.024071 -3.930675 -1.570117 -11.593568 3.508548 3.255445 -11.761687 -0.171702 -23.282081 1.173002 0.549742 -60.461105 -4.120155 22.556061 5.337109 -17.827872 7.007852 -5.542144 -8.689456 7.982020 -14.410355 -7.779172 -14.540067 23.510032 2.704933 1.688610 50.979092 -2.939842 8.528710 -15.397473 -0.287605 -18.709625 1.796051 6.671252 -10.462974 14.702471 7.398796 -5.633800 
0.009877 0.006362 -0.032191 176.805824 18.426174 -11.818645 0.813387 7.408108 4.516815 0.148579 3.733322 -5.187632 -0.804916 14.064913 -0.696053 2.361740 2.545275 -3.990662 2.329594 -3.440588 1.498982 -1.183164 -2.729579 -2.935467 1.792583 -10.510290 -2.716067 -0.100482 -1.325576 9.559074 -1.361136 1.057482 2.878025 1.743966 -3.194429 1.525648 -0.538336 -0.373276 -3.318975 -2.046814 -10.967112 3.014759 3.157988 -10.797482 -1.010354 -22.161883 0.392400 0.821502 -59.692859 -3.255659 23.041903 3.315367 -21.654804 10.615154 -5.667041 -8.797520 8.704589 -15.025828 -8.279124 -15.262957 21.007847 2.187684 1.446820 47.650793 -4.052692 7.538639 -16.668160 2.504278 -18.803241 1.960770 6.866141 -9.937593 15.264599 7.663395 -6.507332 
0.007623 0.006417 -0.035958 177.309578 16.921916 -11.549367 0.434408 7.649406 4.344580 0.147983 4.153562 -5.163560 -0.750397 14.374988 -0.338622 2.232456 2.715499 -4.161929 2.110612 -3.204450 1.044193 -1.336410 -2.104029 -2.946811 2.697933 -10.621904 -2.440397 -1.602888 -0.569292 9.201044 -0.815948 0.956202 3.315589 1.362239 -3.456284 0.889541 -0.940525 -0.262088 -2.822836 -2.164187 -10.341144 2.635356 3.590933 -9.885863 -1.753351 -21.315841 -0.439410 0.541191 -59.479444 -3.274902 21.819636 4.217432 -18.682350 8.473031 -6.358218 -7.910426 8.404138 -15.341699 -8.646614 -15.450404 18.512656 2.679772 1.204987 46.087860 -3.704112 6.808272 -18.046988 4.010260 -20.163426 2.012373 7.029319 -9.954414 15.852933 7.809772 -6.926021 
